<mxfile host="app.diagrams.net" modified="2024-06-24T01:19:07.674Z" agent="Mozilla/5.0 (X11; Linux x86_64; rv:126.0) Gecko/20100101 Firefox/126.0" version="24.6.2" etag="oRoTQypWVqKjZRuJxezK" type="github">
  <diagram name="第 1 页" id="DIHaKpWapZ3dwJxdXCXO">
    <mxGraphModel>
      <root>
        <mxCell id="0" />
        <mxCell id="1" parent="0" />
      </root>
    </mxGraphModel>
  </diagram>
</mxfile>
